<svg data-v-fde0c5aa="" xmlns="http://www.w3.org/2000/svg" viewBox="0 0 300 300" class="iconAbove"><!----><defs data-v-fde0c5aa=""><!----></defs><rect data-v-fde0c5aa="" fill="#01252C" x="0" y="0" width="300px" height="300px" class="logo-background-square"></rect><defs data-v-fde0c5aa=""><!----></defs><g data-v-fde0c5aa="" id="375c1cb2-235e-40ce-8c00-6831ade0f542" fill="#FFFFFF" transform="matrix(6.598954746646069,0,0,6.598954746646069,82.79844149831902,174.01562141331272)"><path d="M5.68 2.93L5.68 2.93L5.68 2.93Q5.78 2.91 5.97 2.93L5.97 2.93L5.97 2.93Q6.16 2.95 6.36 3.00L6.36 3.00L6.36 3.00Q6.57 3.05 6.74 3.11L6.74 3.11L6.74 3.11Q6.92 3.16 7 3.22L7 3.22L7 3.22Q7.53 3.58 7.91 4.07L7.91 4.07L7.91 4.07Q8.29 4.55 8.55 5.14L8.55 5.14L8.55 5.14Q8.67 5.39 8.75 5.71L8.75 5.71L8.75 5.71Q8.83 6.02 8.89 6.36L8.89 6.36L8.89 6.36Q8.95 6.69 8.97 7.02L8.97 7.02L8.97 7.02Q9.00 7.35 9.00 7.62L9.00 7.62L9.00 7.62Q9.00 8.54 8.72 9.50L8.72 9.50L8.72 9.50Q8.44 10.46 7.90 11.25L7.90 11.25L7.90 11.25Q7.36 12.04 6.56 12.54L6.56 12.54L6.56 12.54Q5.75 13.03 4.70 13.03L4.70 13.03L4.70 13.03Q4.12 13.03 3.56 12.89L3.56 12.89L3.56 12.89Q3.00 12.75 2.49 12.45L2.49 12.45L2.49 12.45Q2.25 12.31 2.07 12.15L2.07 12.15L2.07 12.15Q1.89 12.00 1.74 11.83L1.74 11.83L1.74 11.83Q1.60 11.66 1.46 11.47L1.46 11.47L1.46 11.47Q1.33 11.28 1.19 11.05L1.19 11.05L1.18 11.02L1.18 11.02Q1.01 10.77 0.91 10.42L0.91 10.42L0.91 10.42Q0.81 10.07 0.75 9.68L0.75 9.68L0.75 9.68Q0.69 9.30 0.66 8.93L0.66 8.93L0.66 8.93Q0.63 8.55 0.62 8.26L0.62 8.26L0.62 8.26Q0.60 7.64 0.73 6.96L0.73 6.96L0.73 6.96Q0.87 6.29 1.15 5.64L1.15 5.64L1.15 5.64Q1.43 5.00 1.85 4.46L1.85 4.46L1.85 4.46Q2.27 3.92 2.83 3.58L2.83 3.58L2.83 3.58Q3.04 3.46 3.39 3.31L3.39 3.31L3.39 3.31Q3.74 3.16 4.14 3.05L4.14 3.05L4.14 3.05Q4.54 2.94 4.94 2.90L4.94 2.90L4.94 2.90Q5.35 2.86 5.68 2.93ZM4.94 4.17L4.94 4.17L4.94 4.17Q4.24 4.20 3.73 4.54L3.73 4.54L3.73 4.54Q3.22 4.87 2.88 5.41L2.88 5.41L2.88 5.41Q2.53 5.95 2.34 6.62L2.34 6.62L2.34 6.62Q2.14 7.29 2.10 7.97L2.10 7.97L2.10 7.97Q2.04 8.64 2.14 9.29L2.14 9.29L2.14 9.29Q2.23 9.94 2.56 10.53L2.56 10.53L2.56 10.53Q2.88 11.10 3.49 11.34L3.49 11.34L3.49 11.34Q4.10 11.58 4.75 11.49L4.75 11.49L4.75 11.49Q5.47 11.41 5.93 11.08L5.93 11.08L5.93 11.08Q6.38 10.75 6.75 10.12L6.75 10.12L6.75 10.12Q7.01 9.65 7.18 9.02L7.18 9.02L7.18 9.02Q7.35 8.39 7.38 7.71L7.38 7.71L7.38 7.71Q7.41 7.04 7.29 6.40L7.29 6.40L7.29 6.40Q7.17 5.75 6.87 5.25L6.87 5.25L6.87 5.25Q6.58 4.75 6.10 4.45L6.10 4.45L6.10 4.45Q5.63 4.16 4.94 4.17ZM9.17 12.67L9.17 12.67L9.17 12.67Q8.90 12.53 8.81 12.29L8.81 12.29L8.81 12.29Q8.72 12.05 8.78 11.81L8.78 11.81L8.78 11.81Q8.83 11.56 9.01 11.38L9.01 11.38L9.01 11.38Q9.18 11.19 9.45 11.14L9.45 11.14L9.45 11.14Q9.83 11.09 10.06 11.28L10.06 11.28L10.06 11.28Q10.29 11.47 10.34 11.74L10.34 11.74L10.34 11.74Q10.39 12.01 10.25 12.30L10.25 12.30L10.25 12.30Q10.12 12.59 9.76 12.74L9.76 12.74L9.76 12.74Q9.56 12.82 9.42 12.78L9.42 12.78L9.42 12.78Q9.28 12.74 9.17 12.67ZM18.66 5.96L18.66 5.96L18.66 5.96Q18.38 5.40 17.96 5.03L17.96 5.03L17.96 5.03Q17.54 4.66 16.91 4.56L16.91 4.56L16.91 4.56Q16.04 4.42 15.41 4.84L15.41 4.84L15.41 4.84Q14.77 5.25 14.35 5.96L14.35 5.96L14.35 5.96Q14.15 6.30 13.97 6.64L13.97 6.64L13.97 6.64Q13.79 6.97 13.66 7.34L13.66 7.34L13.66 7.34Q13.50 7.83 13.43 8.43L13.43 8.43L13.43 8.43Q13.37 9.03 13.47 9.61L13.47 9.61L13.47 9.61Q13.58 10.19 13.87 10.67L13.87 10.67L13.87 10.67Q14.17 11.14 14.71 11.40L14.71 11.40L14.71 11.40Q15.37 11.69 16.12 11.61L16.12 11.61L16.12 11.61Q16.87 11.52 17.46 11.14L17.46 11.14L17.46 11.14Q17.60 11.06 17.82 10.88L17.82 10.88L17.82 10.88Q18.05 10.71 18.26 10.51L18.26 10.51L18.26 10.51Q18.48 10.30 18.66 10.09L18.66 10.09L18.66 10.09Q18.83 9.88 18.90 9.73L18.90 9.73L18.90 9.73Q19.15 9.76 19.36 9.97L19.36 9.97L19.36 9.97Q19.56 10.18 19.75 10.32L19.75 10.32L19.75 10.32Q19.74 10.49 19.72 10.60L19.72 10.60L19.72 10.60Q19.70 10.71 19.59 10.84L19.59 10.84L19.59 10.84Q19.53 11.02 19.40 11.20L19.40 11.20L19.40 11.20Q19.28 11.38 19.12 11.55L19.12 11.55L19.12 11.55Q18.97 11.72 18.80 11.87L18.80 11.87L18.80 11.87Q18.63 12.01 18.48 12.12L18.48 12.12L18.48 12.12Q17.85 12.57 17.13 12.80L17.13 12.80L17.13 12.80Q16.41 13.03 15.67 13.03L15.67 13.03L15.67 13.03Q14.94 13.02 14.24 12.75L14.24 12.75L14.24 12.75Q13.55 12.47 13.01 11.89L13.01 11.89L13.01 11.89Q12.81 11.69 12.69 11.49L12.69 11.49L12.69 11.49Q12.57 11.30 12.46 11.06L12.46 11.06L12.46 11.06Q12.40 10.95 12.31 10.76L12.31 10.76L12.31 10.76Q12.22 10.57 12.15 10.36L12.15 10.36L12.15 10.36Q12.08 10.15 12.04 9.96L12.04 9.96L12.04 9.96Q12.00 9.77 12.03 9.66L12.03 9.66L12.03 9.66Q11.98 9.53 11.96 9.33L11.96 9.33L11.96 9.33Q11.93 9.13 11.91 8.97L11.91 8.97L11.91 8.97Q11.87 8.29 12.02 7.51L12.02 7.51L12.02 7.51Q12.17 6.73 12.49 6.00L12.49 6.00L12.49 6.00Q12.81 5.26 13.29 4.65L13.29 4.65L13.29 4.65Q13.76 4.03 14.36 3.65L14.36 3.65L14.36 3.65Q14.78 3.39 15.18 3.19L15.18 3.19L15.18 3.19Q15.57 3.00 15.97 2.90L15.97 2.90L15.97 2.90Q16.37 2.81 16.79 2.83L16.79 2.83L16.79 2.83Q17.21 2.84 17.71 3.00L17.71 3.00L17.71 3.00Q17.99 3.08 18.21 3.16L18.21 3.16L18.21 3.16Q18.44 3.23 18.68 3.42L18.68 3.42L18.68 3.42Q19.04 3.70 19.31 4.11L19.31 4.11L19.31 4.11Q19.57 4.52 19.57 4.98L19.57 4.98L19.57 4.98Q19.46 5.08 19.35 5.22L19.35 5.22L19.35 5.22Q19.24 5.36 19.12 5.50L19.12 5.50L19.12 5.50Q19.01 5.64 18.90 5.77L18.90 5.77L18.90 5.77Q18.79 5.89 18.66 5.96Z"></path></g><defs data-v-fde0c5aa=""><!----></defs><g data-v-fde0c5aa="" id="829c897f-a82d-4672-8c2a-b0ccf783915c" stroke="none" fill="#88DF95" transform="matrix(1.4027194747168266,0,0,1.4027194747168266,82.66837760162221,40)"><path d="M32 16c0-8.288 7.032-12 14-12h4c6.968 0 14 3.712 14 12v12h4V16c0-9.42-7.408-16-18-16h-4C35.404 0 28 6.58 28 16v12h4V16zM78 83.023c0-4.039-2.54-5.295-5.756-6.883l-1.756-.873c-3.236-1.592-3.532-1.871-3.532-3.291 0-2.389 2.464-2.645 3.528-2.645 1.035 0 3.439.256 3.439 2.645 0 1.1.9 2 2 2 1.104 0 2-.9 2-2 0-3.5-2.32-5.984-5.916-6.528V64c0-1.1-.896-2-2-2s-2 .9-2 2v1.68c-3.06.824-5.052 3.172-5.052 6.297 0 4.043 2.544 5.295 5.76 6.883l1.752.873C73.704 81.324 74 81.604 74 83.023c0 2.353-2.468 2.601-3.523 2.601-1.068 0-3.533-.252-3.533-2.601 0-1.1-.896-2-2-2-1.1 0-2 .9-2 2 0 3.168 1.961 5.469 5.057 6.272V92c0 1.1.9 2 2 2s2-.9 2-2v-2.484C75.645 88.977 78 86.512 78 83.023z"></path><path d="M95.9 93.368l-20-60A2.01 2.01 0 0 0 74 32h-6v12c0 1.1-.9 2-2 2s-2-.9-2-2V32H32v12c0 1.1-.896 2-2 2s-2-.9-2-2V32h-6a2 2 0 0 0-1.896 1.368l-20 60c-.204.608-.1 1.28.272 1.804.376.519.98.828 1.624.828h63.561C64.6 94.936 64 93.544 64 92v-.064c-3.148-1.863-5.057-5.107-5.057-8.916 0-1.852.841-3.508 2.164-4.607-1.271-1.532-2.164-3.58-2.164-6.432 0-3.816 1.937-7.097 5.133-8.965a6.006 6.006 0 0 1 5.916-5.012 6.007 6.007 0 0 1 5.787 4.42c3.765 1.7 6.133 5.244 6.133 9.557a6.001 6.001 0 0 1-2.116 4.571c1.296 1.54 2.196 3.593 2.196 6.476 0 4.244-2.32 7.736-6.016 9.449-.108 1.355-.688 2.575-1.553 3.527h19.568c.64 0 1.248-.309 1.619-.828.39-.528.49-1.199.29-1.808z"></path></g><!----></svg>